<svg width="31" height="30" viewBox="0 0 31 30" fill="none" xmlns="http://www.w3.org/2000/svg">
<path d="M10.536 5C11.1115 5 13.4137 10.1799 13.4137 10.7554C13.4137 11.9065 11.6871 13.0576 11.1115 14.2086C10.536 15.3597 11.6871 16.5108 12.8381 17.6619C13.2871 18.1108 15.1403 19.964 16.2914 19.3885C17.4424 18.813 18.5935 17.0863 19.7446 17.0863C20.3201 17.0863 25.5 19.3885 25.5 19.964C25.5 22.2662 23.7734 23.9928 22.0468 24.5683C20.3201 25.1439 19.1691 25.1439 16.8669 24.5683C14.5647 23.9928 12.8381 23.4173 9.96043 20.5396C7.08273 17.6619 6.50719 15.9353 5.93165 13.6331C5.35612 11.3309 5.35612 10.1799 5.93165 8.45324C6.50719 6.72662 8.23381 5 10.536 5Z" fill="white" stroke="white" stroke-width="2" stroke-linecap="round" stroke-linejoin="round"/>
<path d="M17.4424 9.65039C18.2021 10.0072 18.8927 10.4907 19.4683 11.0777C20.0323 11.6418 20.5043 12.3209 20.8496 13.0576" stroke="white" stroke-width="2" stroke-linecap="round" stroke-linejoin="round"/>
<path d="M18.5935 5.2876C20.2165 5.7135 21.6669 6.55378 22.818 7.70486C23.9575 8.85594 24.7978 10.2948 25.2122 11.9063" stroke="white" stroke-width="2" stroke-linecap="round" stroke-linejoin="round"/>
</svg>
