<svg width="31" height="30" viewBox="0 0 31 30" fill="none" xmlns="http://www.w3.org/2000/svg">
<path d="M21.9512 8.40001C21.3341 8.40001 20.8061 8.18477 20.367 7.75431C19.928 7.32384 19.7081 6.80574 19.7073 6.20001C19.7066 5.59427 19.9265 5.07654 20.367 4.64681C20.8076 4.21707 21.3356 4.00147 21.9512 4.00001C22.5668 3.99854 23.0952 4.21414 23.5365 4.64681C23.9778 5.07947 24.1974 5.59721 24.1951 6.20001C24.1929 6.80281 23.9734 7.32091 23.5365 7.75431C23.0997 8.18771 22.5713 8.40294 21.9512 8.40001ZM20.8293 26V17.2C20.8293 16.4667 20.6374 15.8067 20.2537 15.22C19.87 14.6333 19.3793 14.175 18.7817 13.845L19.7634 11.0125C19.913 10.5542 20.189 10.1875 20.5914 9.9125C20.9938 9.63751 21.4471 9.50001 21.9512 9.50001C22.4553 9.50001 22.909 9.63751 23.3121 9.9125C23.7153 10.1875 23.9909 10.5542 24.139 11.0125L27 19.4H24.1951V26H20.8293ZM15.7805 14.45C15.313 14.45 14.9158 14.2898 14.589 13.9693C14.2621 13.6488 14.0983 13.2591 14.0976 12.8C14.0968 12.3409 14.2606 11.9515 14.589 11.6318C14.9173 11.3121 15.3145 11.1515 15.7805 11.15C16.2465 11.1485 16.644 11.3091 16.9731 11.6318C17.3022 11.9545 17.4657 12.3439 17.4634 12.8C17.4612 13.2561 17.2977 13.6459 16.9731 13.9693C16.6485 14.2927 16.251 14.4529 15.7805 14.45ZM7.92683 8.40001C7.30976 8.40001 6.78169 8.18477 6.34263 7.75431C5.90358 7.32384 5.68367 6.80574 5.68293 6.20001C5.68218 5.59427 5.90208 5.07654 6.34263 4.64681C6.78319 4.21707 7.31125 4.00147 7.92683 4.00001C8.54241 3.99854 9.07085 4.21414 9.51215 4.64681C9.95345 5.07947 10.173 5.59721 10.1707 6.20001C10.1685 6.80281 9.94896 7.32091 9.51215 7.75431C9.07533 8.18771 8.54689 8.40294 7.92683 8.40001ZM5.68293 26V18.3H4V11.7C4 11.095 4.2199 10.5773 4.65971 10.1468C5.09951 9.71634 5.62758 9.50074 6.2439 9.50001H9.60976C10.2268 9.50001 10.7553 9.7156 11.1951 10.1468C11.6349 10.578 11.8544 11.0957 11.8537 11.7V18.3H10.1707V26H5.68293ZM14.0976 26V21.6H12.9756V17.2C12.9756 16.7417 13.1394 16.3523 13.467 16.0318C13.7946 15.7113 14.1918 15.5507 14.6585 15.55H16.9024C17.3699 15.55 17.7675 15.7106 18.0951 16.0318C18.4227 16.353 18.5861 16.7424 18.5854 17.2V21.6H17.4634V26H14.0976Z" fill="white"/>
</svg>
