<svg width="31" height="30" viewBox="0 0 31 30" fill="none" xmlns="http://www.w3.org/2000/svg">
<path d="M29.2616 13.3989L27.4289 8.11889C27.2586 7.63209 26.9338 7.20877 26.5001 6.90843C26.0663 6.60809 25.5455 6.44582 25.0107 6.44444H24.298V5.22222C24.298 4.55 23.7253 4 23.0253 4H21.7526C21.0526 4 20.4798 4.55 20.4798 5.22222V6.44444H17.9344C16.5344 6.44444 15.3889 7.54444 15.3889 8.88889V13.7778H3.93437C2.53437 13.7778 1.38892 14.8778 1.38892 16.2222V19.8889C1.38892 21.2333 2.53437 22.3333 3.93437 22.3333H5.2071C5.2071 24.3622 6.91255 26 9.02528 26C11.138 26 12.8435 24.3622 12.8435 22.3333H17.9344C17.9344 24.3622 19.6398 26 21.7526 26C23.8653 26 25.5707 24.3622 25.5707 22.3333H26.8435C28.2435 22.3333 29.3889 21.2333 29.3889 19.8889V14.1689C29.3889 13.9122 29.3507 13.6556 29.2616 13.3989ZM9.02528 23.5556C8.32528 23.5556 7.75255 23.0056 7.75255 22.3333C7.75255 21.6611 8.32528 21.1111 9.02528 21.1111C9.72528 21.1111 10.298 21.6611 10.298 22.3333C10.298 23.0056 9.72528 23.5556 9.02528 23.5556ZM21.7526 23.5556C21.0526 23.5556 20.4798 23.0056 20.4798 22.3333C20.4798 21.6611 21.0526 21.1111 21.7526 21.1111C22.4526 21.1111 23.0253 21.6611 23.0253 22.3333C23.0253 23.0056 22.4526 23.5556 21.7526 23.5556ZM17.9344 13.7778V8.88889H25.0107L26.7035 13.7778H17.9344Z" fill="white"/>
<path d="M13.4139 10.2H13.0889V7.8H13.4139C13.9469 7.8 14.3889 7.392 14.3889 6.9C14.3889 6.408 13.9469 6 13.4139 6H2.36392C1.83092 6 1.38892 6.408 1.38892 6.9C1.38892 7.392 1.83092 7.8 2.36392 7.8H2.68892V10.2H2.36392C1.83092 10.2 1.38892 10.608 1.38892 11.1C1.38892 11.592 1.83092 12 2.36392 12H13.4139C13.9469 12 14.3889 11.592 14.3889 11.1C14.3889 10.608 13.9469 10.2 13.4139 10.2ZM6.91392 10.2H4.63892V7.8H6.91392V10.2ZM11.1389 10.2H8.86392V7.8H11.1389V10.2Z" fill="white"/>
</svg>
