<svg width="31" height="30" viewBox="0 0 31 30" fill="none" xmlns="http://www.w3.org/2000/svg">
<path d="M28.069 24.1667H27.1379V15C27.1379 14.5138 26.9417 14.0475 26.5925 13.7036C26.2433 13.3598 25.7697 13.1667 25.2759 13.1667H18.7586V5.83333C18.7586 5.3471 18.5624 4.88079 18.2132 4.53697C17.864 4.19315 17.3904 4 16.8966 4H5.72414C5.23029 4 4.75666 4.19315 4.40746 4.53697C4.05825 4.88079 3.86207 5.3471 3.86207 5.83333V24.1667H2.93103C2.68411 24.1667 2.4473 24.2632 2.27269 24.4352C2.09809 24.6071 2 24.8402 2 25.0833C2 25.3264 2.09809 25.5596 2.27269 25.7315C2.4473 25.9034 2.68411 26 2.93103 26H28.069C28.3159 26 28.5527 25.9034 28.7273 25.7315C28.9019 25.5596 29 25.3264 29 25.0833C29 24.8402 28.9019 24.6071 28.7273 24.4352C28.5527 24.2632 28.3159 24.1667 28.069 24.1667ZM14.1034 24.1667H8.51724V18.6667H14.1034V24.1667ZM14.1034 12.25H12.2414V14.0833C12.2414 14.3264 12.1433 14.5596 11.9687 14.7315C11.7941 14.9034 11.5573 15 11.3103 15C11.0634 15 10.8266 14.9034 10.652 14.7315C10.4774 14.5596 10.3793 14.3264 10.3793 14.0833V12.25H8.51724C8.27032 12.25 8.0335 12.1534 7.8589 11.9815C7.6843 11.8096 7.58621 11.5764 7.58621 11.3333C7.58621 11.0902 7.6843 10.8571 7.8589 10.6852C8.0335 10.5132 8.27032 10.4167 8.51724 10.4167H10.3793V8.58333C10.3793 8.34022 10.4774 8.10706 10.652 7.93515C10.8266 7.76324 11.0634 7.66667 11.3103 7.66667C11.5573 7.66667 11.7941 7.76324 11.9687 7.93515C12.1433 8.10706 12.2414 8.34022 12.2414 8.58333V10.4167H14.1034C14.3504 10.4167 14.5872 10.5132 14.7618 10.6852C14.9364 10.8571 15.0345 11.0902 15.0345 11.3333C15.0345 11.5764 14.9364 11.8096 14.7618 11.9815C14.5872 12.1534 14.3504 12.25 14.1034 12.25ZM25.2759 24.1667H18.7586V15H25.2759V24.1667Z" fill="white"/>
</svg>
