<svg width="31" height="30" viewBox="0 0 31 30" fill="none" xmlns="http://www.w3.org/2000/svg">
<path d="M16.2929 3.20178L24.8643 8.00174C25.0599 8.11136 25.2202 8.25984 25.3311 8.434C25.442 8.60816 25.5 8.80263 25.5 9.00014V23.4C25.5 24.3548 25.0485 25.2705 24.2447 25.9456C23.441 26.6207 22.3509 27 21.2143 27H9.78571C8.64907 27 7.55898 26.6207 6.75526 25.9456C5.95153 25.2705 5.5 24.3548 5.5 23.4V9.00014C5.49996 8.80263 5.55797 8.60816 5.66886 8.434C5.77976 8.25984 5.94012 8.11136 6.13571 8.00174L14.7071 3.20178C14.9419 3.07021 15.2178 3 15.5 3C15.7822 3 16.0581 3.07021 16.2929 3.20178ZM16.1386 18.7273C15.9403 18.644 15.7217 18.6007 15.5 18.6007C15.2783 18.6007 15.0597 18.644 14.8614 18.7273L12.0043 19.9273C11.6657 20.0696 11.4082 20.3191 11.2885 20.6208C11.1688 20.9226 11.1965 21.2519 11.3657 21.5364L11.4486 21.6588C11.6407 21.9044 11.9335 22.0822 12.2713 22.1585C12.6091 22.2348 12.9686 22.2043 13.2814 22.0728L15.5 21.1416L17.7186 22.0728C18.0556 22.2036 18.44 22.219 18.7903 22.1159C19.1406 22.0127 19.4294 21.799 19.5954 21.5201C19.7614 21.2412 19.7917 20.919 19.6797 20.6216C19.5678 20.3243 19.3225 20.0753 18.9957 19.9273L16.1386 18.7273ZM16.1386 13.9273C15.9403 13.8441 15.7217 13.8007 15.5 13.8007C15.2783 13.8007 15.0597 13.8441 14.8614 13.9273L12.0043 15.1273C11.6657 15.2697 11.4082 15.5191 11.2885 15.8209C11.1688 16.1226 11.1965 16.4519 11.3657 16.7365L11.4486 16.8589C11.6407 17.1044 11.9335 17.2822 12.2713 17.3585C12.6091 17.4348 12.9686 17.4043 13.2814 17.2729L15.5 16.3417L17.7186 17.2729C18.0556 17.4036 18.44 17.4191 18.7903 17.3159C19.1406 17.2127 19.4294 16.9991 19.5954 16.7201C19.7614 16.4412 19.7917 16.119 19.6797 15.8217C19.5678 15.5243 19.3225 15.2753 18.9957 15.1273L16.1386 13.9273ZM16.1386 9.12733C15.9403 9.0441 15.7217 9.00078 15.5 9.00078C15.2783 9.00078 15.0597 9.0441 14.8614 9.12733L12.0043 10.3273C11.6657 10.4697 11.4082 10.7192 11.2885 11.0209C11.1688 11.3226 11.1965 11.652 11.3657 11.9365L11.4486 12.0589C11.6407 12.3045 11.9335 12.4822 12.2713 12.5585C12.6091 12.6348 12.9686 12.6044 13.2814 12.4729L15.5 11.5417L17.7186 12.4729C18.0556 12.6037 18.44 12.6191 18.7903 12.5159C19.1406 12.4128 19.4294 12.1991 19.5954 11.9202C19.7614 11.6413 19.7917 11.319 19.6797 11.0217C19.5678 10.7244 19.3225 10.4753 18.9957 10.3273L16.1386 9.12733Z" fill="white"/>
</svg>
