<svg width="31" height="30" viewBox="0 0 31 30" fill="none" xmlns="http://www.w3.org/2000/svg">
<path d="M27.825 14.7418L24.4375 9.0669C24.2194 8.684 23.9061 8.36562 23.529 8.1434C23.1518 7.92117 22.7238 7.80285 22.2875 7.80018H19.25V5.26673C19.25 4.93077 19.1183 4.60857 18.8839 4.37102C18.6495 4.13346 18.3315 4 18 4H5.5C4.83696 4 4.20107 4.26692 3.73223 4.74203C3.26339 5.21715 3 5.86154 3 6.53345V19.2007C3.00045 19.645 3.11618 20.0813 3.33558 20.466C3.55498 20.8506 3.87033 21.17 4.25 21.3921C4.20524 22.568 4.62326 23.7137 5.41208 24.5772C6.20091 25.4407 7.29593 25.9513 8.45625 25.9967C9.61657 26.0421 10.7471 25.6184 11.5993 24.8191C12.4514 24.0197 12.9552 22.91 13 21.7342H16.875C17.0132 22.794 17.5268 23.7669 18.3202 24.4716C19.1135 25.1763 20.1325 25.5648 21.1875 25.5648C22.2425 25.5648 23.2615 25.1763 24.0548 24.4716C24.8482 23.7669 25.3618 22.794 25.5 21.7342C26.163 21.7342 26.7989 21.4672 27.2678 20.9921C27.7366 20.517 28 19.8726 28 19.2007V15.4005C27.9964 15.1697 27.9363 14.9433 27.825 14.7418ZM8.625 23.0009C8.25416 23.0009 7.89165 22.8895 7.58331 22.6807C7.27496 22.4719 7.03464 22.1751 6.89273 21.8279C6.75081 21.4807 6.71368 21.0987 6.78603 20.7301C6.85837 20.3615 7.03695 20.023 7.29917 19.7572C7.5614 19.4915 7.89549 19.3105 8.25921 19.2372C8.62292 19.1639 8.99992 19.2015 9.34253 19.3454C9.68514 19.4892 9.97798 19.7327 10.184 20.0452C10.39 20.3576 10.5 20.725 10.5 21.1008C10.5 21.6047 10.3025 22.088 9.95083 22.4444C9.59919 22.8007 9.12228 23.0009 8.625 23.0009ZM15.5 12.8671H13V15.4005H10.5V12.8671H8V10.3336H10.5V7.80018H13V10.3336H15.5V12.8671ZM21.125 23.0009C20.7542 23.0009 20.3916 22.8895 20.0833 22.6807C19.775 22.4719 19.5346 22.1751 19.3927 21.8279C19.2508 21.4807 19.2137 21.0987 19.286 20.7301C19.3584 20.3615 19.537 20.023 19.7992 19.7572C20.0614 19.4915 20.3955 19.3105 20.7592 19.2372C21.1229 19.1639 21.4999 19.2015 21.8425 19.3454C22.1851 19.4892 22.478 19.7327 22.684 20.0452C22.89 20.3576 23 20.725 23 21.1008C23 21.6047 22.8025 22.088 22.4508 22.4444C22.0992 22.8007 21.6223 23.0009 21.125 23.0009ZM19.25 14.1338V10.3336H22.2875L24.5375 14.1338H19.25Z" fill="white"/>
</svg>
