<svg width="31" height="30" viewBox="0 0 31 30" fill="none" xmlns="http://www.w3.org/2000/svg">
<path d="M18.2778 15.5005L18.9778 18.254C19.0889 18.6877 18.5667 19.0306 18.1444 18.7986L15.5 17.3462L12.8444 18.7986C12.7508 18.8502 12.6426 18.8756 12.5332 18.8717C12.4238 18.8678 12.3181 18.8347 12.2292 18.7766C12.1404 18.7186 12.0723 18.638 12.0335 18.5451C11.9947 18.4522 11.9869 18.3509 12.0111 18.254L12.7222 15.5106L10.3889 13.685C10.3051 13.6207 10.2441 13.5353 10.2137 13.4395C10.1833 13.3438 10.1849 13.242 10.2182 13.147C10.2514 13.0521 10.315 12.9682 10.4007 12.906C10.4865 12.8438 10.5906 12.806 10.7 12.7975L13.7889 12.5554L14.9889 9.97341C15.1778 9.55989 15.8222 9.55989 16.0111 9.97341L17.2111 12.5453L20.3 12.7874C20.4094 12.7959 20.5135 12.8337 20.5993 12.8959C20.685 12.9581 20.7486 13.042 20.7818 13.1369C20.8151 13.2319 20.8167 13.3337 20.7863 13.4294C20.7559 13.5252 20.6949 13.6106 20.6111 13.675L18.2778 15.5005ZM6.82222 7.31072C6.02222 7.63347 5.5 8.35966 5.5 9.15645V13.8968C5.5 19.4946 9.76667 24.7292 15.5 26C21.2333 24.7292 25.5 19.4946 25.5 13.8968V9.15645C25.5 8.35966 24.9778 7.63347 24.1778 7.31072L16.4 4.17398C15.8222 3.94201 15.1667 3.94201 14.6 4.17398L6.82222 7.31072Z" fill="white"/>
</svg>
